<?xml version="1.0"?>
<svg xmlns="http://www.w3.org/2000/svg" xmlns:xlink="http://www.w3.org/1999/xlink" xmlns:svgjs="http://svgjs.com/svgjs" version="1.1" width="512" height="512" x="0" y="0" viewBox="0 0 512 512" style="enable-background:new 0 0 512 512" xml:space="preserve" class=""><g><g xmlns="http://www.w3.org/2000/svg"><path d="m107.693 331.375h-3.757c-7.547 0-13.687-6.14-13.687-13.687s6.14-13.687 13.687-13.687h3.396c7.557 0 13.704 6.147 13.704 13.704h30c0-24.099-19.605-43.704-43.704-43.704h-3.396c-24.089 0-43.687 19.598-43.687 43.687s19.598 43.687 43.687 43.687h3.757c7.547 0 13.687 6.14 13.687 13.687s-6.14 13.687-13.687 13.687h-4.037c-7.267 0-13.179-5.912-13.179-13.179h-30c0 23.809 19.37 43.179 43.179 43.179h4.037c24.089 0 43.687-19.598 43.687-43.687s-19.598-43.687-43.687-43.687z" fill="#ffffff" data-original="#000000" style=""/><path d="m451.75 388.748h-46.13v-27.369h24.627v-30h-24.627v-27.377h46.13v-30h-76.13v144.746h76.13z" fill="#ffffff" data-original="#000000" style=""/><path d="m216.812 274.002c-25.125 0-45.565 20.44-45.565 45.565v99.181h30v-57.369h31.131v57.369h30v-99.181c0-25.125-20.44-45.565-45.566-45.565zm-15.565 57.377v-11.812c0-8.583 6.982-15.565 15.565-15.565s15.565 6.982 15.565 15.565v11.812z" fill="#ffffff" data-original="#000000" style=""/><path d="m361.255 418.748v-30h-46.13v-114.746h-30v144.746z" fill="#ffffff" data-original="#000000" style=""/><path d="m298.949 210.875 52.426-97.721-71.199-16.794 6.325-66.235h-116.628l20.609 147.844 50.518 9.688v23.218h-241v271h512v-271zm-81.72-58.323-12.883-92.427h49.153l-5.675 59.428 58.652 13.834-35.476 66.126v-36.65zm264.771 299.323h-452v-211h211v30.216h25.644l16.211-30.216h199.145z" fill="#ffffff" data-original="#000000" style=""/></g></g></svg>
